<svg id="visual" viewBox="0 0 1440 400" width="1440" height="400" xmlns="http://www.w3.org/2000/svg" xmlns:xlink="http://www.w3.org/1999/xlink" version="1.1"><path d="M0 138L60 141.8C120 145.7 240 153.3 360 161C480 168.7 600 176.3 720 171C840 165.7 960 147.3 1080 135.7C1200 124 1320 119 1380 116.5L1440 114L1440 401L1380 401C1320 401 1200 401 1080 401C960 401 840 401 720 401C600 401 480 401 360 401C240 401 120 401 60 401L0 401Z" fill="#8b7df7"></path><path d="M0 262L60 256.8C120 251.7 240 241.3 360 239.2C480 237 600 243 720 246.2C840 249.3 960 249.7 1080 240.8C1200 232 1320 214 1380 205L1440 196L1440 401L1380 401C1320 401 1200 401 1080 401C960 401 840 401 720 401C600 401 480 401 360 401C240 401 120 401 60 401L0 401Z" fill="#6455d3"></path><path d="M0 314L60 318.2C120 322.3 240 330.7 360 327C480 323.3 600 307.7 720 297.2C840 286.7 960 281.3 1080 284C1200 286.7 1320 297.3 1380 302.7L1440 308L1440 401L1380 401C1320 401 1200 401 1080 401C960 401 840 401 720 401C600 401 480 401 360 401C240 401 120 401 60 401L0 401Z" fill="#392db0"></path></svg>