<svg id="visual" viewBox="0 0 1440 300" width="1440" height="300" xmlns="http://www.w3.org/2000/svg" xmlns:xlink="http://www.w3.org/1999/xlink" version="1.1"><path d="M0 209L34.3 201.7C68.7 194.3 137.3 179.7 205.8 173.2C274.3 166.7 342.7 168.3 411.2 164.7C479.7 161 548.3 152 617 146C685.7 140 754.3 137 823 144.2C891.7 151.3 960.3 168.7 1028.8 168.2C1097.3 167.7 1165.7 149.3 1234.2 153.2C1302.7 157 1371.3 183 1405.7 196L1440 209L1440 0L1405.7 0C1371.3 0 1302.7 0 1234.2 0C1165.7 0 1097.3 0 1028.8 0C960.3 0 891.7 0 823 0C754.3 0 685.7 0 617 0C548.3 0 479.7 0 411.2 0C342.7 0 274.3 0 205.8 0C137.3 0 68.7 0 34.3 0L0 0Z" fill="#8b7df7"></path><path d="M0 159L34.3 156.3C68.7 153.7 137.3 148.3 205.8 141.2C274.3 134 342.7 125 411.2 126.3C479.7 127.7 548.3 139.3 617 138.3C685.7 137.3 754.3 123.7 823 119.7C891.7 115.7 960.3 121.3 1028.8 130.2C1097.3 139 1165.7 151 1234.2 148.3C1302.7 145.7 1371.3 128.3 1405.7 119.7L1440 111L1440 0L1405.7 0C1371.3 0 1302.7 0 1234.2 0C1165.7 0 1097.3 0 1028.8 0C960.3 0 891.7 0 823 0C754.3 0 685.7 0 617 0C548.3 0 479.7 0 411.2 0C342.7 0 274.3 0 205.8 0C137.3 0 68.7 0 34.3 0L0 0Z" fill="#6756f0"></path><path d="M0 57L34.3 66.3C68.7 75.7 137.3 94.3 205.8 99.8C274.3 105.3 342.7 97.7 411.2 100.7C479.7 103.7 548.3 117.3 617 122.7C685.7 128 754.3 125 823 112.7C891.7 100.3 960.3 78.7 1028.8 73.7C1097.3 68.7 1165.7 80.3 1234.2 80C1302.7 79.7 1371.3 67.3 1405.7 61.2L1440 55L1440 0L1405.7 0C1371.3 0 1302.7 0 1234.2 0C1165.7 0 1097.3 0 1028.8 0C960.3 0 891.7 0 823 0C754.3 0 685.7 0 617 0C548.3 0 479.7 0 411.2 0C342.7 0 274.3 0 205.8 0C137.3 0 68.7 0 34.3 0L0 0Z" fill="#4a3ad8"></path><path d="M0 76L34.3 76.3C68.7 76.7 137.3 77.3 205.8 77.5C274.3 77.7 342.7 77.3 411.2 70.3C479.7 63.3 548.3 49.7 617 45.3C685.7 41 754.3 46 823 53.7C891.7 61.3 960.3 71.7 1028.8 71.7C1097.3 71.7 1165.7 61.3 1234.2 57.7C1302.7 54 1371.3 57 1405.7 58.5L1440 60L1440 0L1405.7 0C1371.3 0 1302.7 0 1234.2 0C1165.7 0 1097.3 0 1028.8 0C960.3 0 891.7 0 823 0C754.3 0 685.7 0 617 0C548.3 0 479.7 0 411.2 0C342.7 0 274.3 0 205.8 0C137.3 0 68.7 0 34.3 0L0 0Z" fill="#392db0"></path></svg>